<mxfile host="app.diagrams.net" modified="2022-07-04T09:24:11.082Z" agent="5.0 (Windows NT 10.0; Win64; x64) AppleWebKit/537.36 (KHTML, like Gecko) Chrome/102.0.0.0 Safari/537.36" etag="kejWGS9I00s8aytox6Je" version="20.0.4" type="github">
  <diagram id="-Thg3NojDzIJrcwwlIQT" name="第 1 页">
    <mxGraphModel dx="1673" dy="925" grid="1" gridSize="10" guides="1" tooltips="1" connect="1" arrows="1" fold="1" page="1" pageScale="1" pageWidth="1654" pageHeight="2336" math="0" shadow="0">
      <root>
        <mxCell id="0" />
        <mxCell id="1" parent="0" />
        <mxCell id="zCkPLSWbQm5JxwFreFaJ-27" value="制令单" style="strokeWidth=2;html=1;shape=mxgraph.flowchart.terminator;whiteSpace=wrap;fontSize=14;fontStyle=1" vertex="1" parent="1">
          <mxGeometry x="636" y="160" width="170" height="70" as="geometry" />
        </mxCell>
        <mxCell id="zCkPLSWbQm5JxwFreFaJ-36" value="" style="line;strokeWidth=2;direction=south;html=1;" vertex="1" parent="1">
          <mxGeometry x="716" y="230" width="10" height="750" as="geometry" />
        </mxCell>
        <mxCell id="zCkPLSWbQm5JxwFreFaJ-31" value="人工扫码开工" style="html=1;whiteSpace=wrap;aspect=fixed;shape=isoRectangle;fontSize=14;" vertex="1" parent="1">
          <mxGeometry x="652.5" y="280" width="133.33" height="80" as="geometry" />
        </mxCell>
        <mxCell id="zCkPLSWbQm5JxwFreFaJ-53" value="" style="edgeStyle=orthogonalEdgeStyle;rounded=0;orthogonalLoop=1;jettySize=auto;html=1;fontSize=145;" edge="1" parent="1" source="zCkPLSWbQm5JxwFreFaJ-44" target="zCkPLSWbQm5JxwFreFaJ-52">
          <mxGeometry relative="1" as="geometry" />
        </mxCell>
        <mxCell id="zCkPLSWbQm5JxwFreFaJ-44" value="验证人员信息" style="html=1;whiteSpace=wrap;aspect=fixed;shape=isoRectangle;fontSize=14;" vertex="1" parent="1">
          <mxGeometry x="646" y="400" width="150" height="90" as="geometry" />
        </mxCell>
        <mxCell id="zCkPLSWbQm5JxwFreFaJ-48" value="" style="strokeWidth=2;html=1;shape=mxgraph.flowchart.annotation_1;align=left;pointerEvents=1;" vertex="1" parent="1">
          <mxGeometry x="521" y="445" width="125" height="355" as="geometry" />
        </mxCell>
        <mxCell id="zCkPLSWbQm5JxwFreFaJ-50" value="否" style="text;html=1;align=center;verticalAlign=middle;resizable=0;points=[];autosize=1;strokeColor=none;fillColor=none;fontSize=14;" vertex="1" parent="1">
          <mxGeometry x="560" y="411" width="40" height="30" as="geometry" />
        </mxCell>
        <mxCell id="zCkPLSWbQm5JxwFreFaJ-51" value="是" style="text;html=1;align=center;verticalAlign=middle;resizable=0;points=[];autosize=1;strokeColor=none;fillColor=none;fontSize=14;" vertex="1" parent="1">
          <mxGeometry x="742" y="483" width="40" height="30" as="geometry" />
        </mxCell>
        <mxCell id="zCkPLSWbQm5JxwFreFaJ-52" value="查询班组人员信息" style="ellipse;whiteSpace=wrap;html=1;fontSize=14;" vertex="1" parent="1">
          <mxGeometry x="891" y="413" width="149" height="65" as="geometry" />
        </mxCell>
        <mxCell id="zCkPLSWbQm5JxwFreFaJ-58" value="" style="edgeStyle=orthogonalEdgeStyle;rounded=0;orthogonalLoop=1;jettySize=auto;html=1;fontSize=14;" edge="1" parent="1" source="zCkPLSWbQm5JxwFreFaJ-54" target="zCkPLSWbQm5JxwFreFaJ-57">
          <mxGeometry relative="1" as="geometry" />
        </mxCell>
        <mxCell id="zCkPLSWbQm5JxwFreFaJ-54" value="&lt;font style=&quot;font-size: 14px;&quot;&gt;工序进度汇报进度&lt;/font&gt;" style="html=1;whiteSpace=wrap;aspect=fixed;shape=isoRectangle;fontSize=14;" vertex="1" parent="1">
          <mxGeometry x="645" y="585.3" width="149.5" height="89.7" as="geometry" />
        </mxCell>
        <mxCell id="zCkPLSWbQm5JxwFreFaJ-60" value="" style="edgeStyle=orthogonalEdgeStyle;rounded=0;orthogonalLoop=1;jettySize=auto;html=1;fontSize=14;" edge="1" parent="1" source="zCkPLSWbQm5JxwFreFaJ-56" target="zCkPLSWbQm5JxwFreFaJ-59">
          <mxGeometry relative="1" as="geometry" />
        </mxCell>
        <mxCell id="zCkPLSWbQm5JxwFreFaJ-56" value="工序质检" style="html=1;whiteSpace=wrap;aspect=fixed;shape=isoRectangle;fontSize=14;" vertex="1" parent="1">
          <mxGeometry x="645" y="879" width="150" height="90" as="geometry" />
        </mxCell>
        <mxCell id="zCkPLSWbQm5JxwFreFaJ-57" value="新增工序汇报记录" style="ellipse;whiteSpace=wrap;html=1;fontSize=14;" vertex="1" parent="1">
          <mxGeometry x="889.25" y="600.15" width="150.75" height="59.85" as="geometry" />
        </mxCell>
        <mxCell id="zCkPLSWbQm5JxwFreFaJ-59" value="质检管理" style="ellipse;whiteSpace=wrap;html=1;fontSize=14;" vertex="1" parent="1">
          <mxGeometry x="890" y="894" width="120" height="60" as="geometry" />
        </mxCell>
        <mxCell id="zCkPLSWbQm5JxwFreFaJ-63" value="" style="edgeStyle=orthogonalEdgeStyle;rounded=0;orthogonalLoop=1;jettySize=auto;html=1;fontSize=14;" edge="1" parent="1" source="zCkPLSWbQm5JxwFreFaJ-61" target="zCkPLSWbQm5JxwFreFaJ-62">
          <mxGeometry relative="1" as="geometry" />
        </mxCell>
        <mxCell id="zCkPLSWbQm5JxwFreFaJ-61" value="人员调度" style="html=1;whiteSpace=wrap;aspect=fixed;shape=isoRectangle;fontSize=14;" vertex="1" parent="1">
          <mxGeometry x="646" y="754" width="148.33" height="89" as="geometry" />
        </mxCell>
        <mxCell id="zCkPLSWbQm5JxwFreFaJ-62" value="" style="ellipse;whiteSpace=wrap;html=1;fontSize=14;" vertex="1" parent="1">
          <mxGeometry x="888.5" y="768.5" width="141.51" height="61.5" as="geometry" />
        </mxCell>
      </root>
    </mxGraphModel>
  </diagram>
</mxfile>
